<svg width="39" height="40" viewBox="0 0 39 40" fill="none" xmlns="http://www.w3.org/2000/svg">
<g id="Logo">
<g id="Group">
<path id="Vector" d="M2.97656 35.3896H11.6263V17.8926L2.97656 26.3786V35.3896Z" fill="#FF5A30"/>
<path id="Vector_2" d="M2.97656 35.3896H11.6263V17.8926L2.97656 26.3786V35.3896Z" fill="#FF5A30"/>
<path id="Vector_3" d="M35.8451 35.3896H27.1953V17.8926L35.8451 26.3786V35.3896Z" fill="#FF5A30"/>
</g>
<path id="Vector_4" d="M2.97656 35.3896H11.6263V17.8926L2.97656 26.3786V35.3896Z" fill="#FF5A30"/>
<path id="Vector_5" d="M11.6263 2.65485H2.97656V20.1519L11.6263 11.6659V2.65485Z" fill="#FF5A30"/>
<path id="Vector_6" d="M21.402 2.65485H17.4258V15.7628H21.402V2.65485Z" fill="#FF5A30"/>
<path id="Vector_7" d="M38.8241 37.342H0V39.9969H38.8241V37.342Z" fill="#FF5A30"/>
<path id="Vector_8" d="M38.8241 0H0V2.65487H38.8241V0Z" fill="#FF5A30"/>
<path id="Vector_9" d="M34.0083 2.65485H33.2695V9.7949H34.0083V2.65485Z" fill="#FF5A30"/>
<path id="Vector_10" d="M4.81672 2.65485H4.078V5.24316H4.81672V2.65485Z" fill="#FF5A30"/>
<path id="Vector_11" d="M4.07812 4.51905V5.24377L33.2687 5.24377V4.51905L4.07812 4.51905Z" fill="#FF5A30"/>
<path id="Vector_12" d="M34.7046 9.79492H32.6053V12.3352H34.7046V9.79492Z" fill="#FF5A30"/>
<path id="Vector_13" d="M33.3231 12.3389L31.8984 14.3134L33.6359 15.7628L35.2 14.343L33.7452 15.0788L32.5505 14.2172L33.9224 12.3389H33.3231Z" fill="#FF5A30"/>
<path id="Vector_14" d="M13.7812 17.8926V35.3896H25.0391V17.8926H13.7812ZM17.4221 31.2557H15.8014V28.9226H17.4221V31.2557ZM17.4221 22.2595H15.8014V19.9263H17.4221V22.2595ZM20.2224 26.6411H18.6018V24.308H20.2224V26.6411ZM23.1207 31.2557H21.5001V28.9226H23.1207V31.2557ZM23.1207 22.2595H21.5001V19.9263H23.1207V22.2595Z" fill="#FF5A30"/>
</g>
</svg>
